<svg width="129" height="40" viewBox="0 0 129 40" fill="none" xmlns="http://www.w3.org/2000/svg">
<g clip-path="url(#clip0_209_208)">
<path d="M42.5593 18.8692C42.5593 19.6984 42.5021 20.6351 42.3891 21.6796H27.1089C27.2369 23.6107 27.9116 25.2054 29.1328 26.4636C30.3541 27.7217 31.8886 28.3508 33.7363 28.3508C34.5465 28.3508 35.2783 28.2901 35.9319 28.1689C36.5855 28.0476 37.1712 27.8551 37.6908 27.5898C38.2088 27.3245 38.5958 27.1078 38.8518 26.935C39.1078 26.7637 39.4406 26.5196 39.8532 26.2059C40.2929 26.4211 40.695 26.7607 41.0579 27.2245C41.4208 27.6899 41.6573 28.1507 41.7717 28.6085C39.4271 30.6109 36.7345 31.6113 33.6942 31.6113C30.6538 31.6113 28.1856 30.617 26.2882 28.6297C24.3908 26.6424 23.4436 24.0033 23.4436 20.714C23.4436 17.4246 24.3983 14.9083 26.3093 12.8195C28.2203 10.7322 30.5815 9.68774 33.396 9.68774C36.0524 9.68774 38.2449 10.5487 39.9707 12.2723C41.6964 13.9958 42.5593 16.1952 42.5593 18.8692ZM27.1511 18.7403H38.894C38.894 17.9976 38.7901 17.2897 38.5853 16.6167C38.379 15.9451 38.0703 15.3191 37.6576 14.74C37.245 14.161 36.6743 13.7002 35.9424 13.3561C35.2106 13.0135 34.3613 12.8407 33.396 12.8407C31.6763 12.8407 30.2562 13.4016 29.1343 14.5248C28.0125 15.648 27.3514 17.0532 27.1526 18.7403H27.1511Z" fill="white"/>
<path d="M64.2936 10.1592C64.9472 10.1592 65.658 10.3092 66.4245 10.6094C64.4774 18.1461 62.1342 24.3535 59.392 29.23C57.3741 32.7907 54.7463 36.3802 51.5072 39.9985C50.9395 39.8985 50.4335 39.6438 49.9938 39.2375C49.5541 38.8298 49.2273 38.3614 49.0134 37.8324C51.4575 35.1008 53.3037 32.6906 54.5551 30.6033C51.0599 24.7688 48.3102 18.0613 46.3074 10.4805C47.0031 10.2653 47.7274 10.1592 48.4804 10.1592C49.0059 10.1592 49.5315 10.2016 50.057 10.288C50.8235 13.2485 51.6984 16.0225 52.6788 18.6115C53.6591 21.2006 54.8804 23.9821 56.3441 26.9562C56.4013 27.0987 56.5143 27.3139 56.6844 27.6004C56.698 27.5716 56.7477 27.4868 56.8335 27.3427C56.9193 27.2003 56.9751 27.0851 57.0037 27.0002C59.2911 22.5527 61.2367 16.982 62.8435 10.2895C63.3269 10.2031 63.8103 10.1607 64.2921 10.1607L64.2936 10.1592Z" fill="white"/>
<path d="M84.346 10.3744C84.3882 10.9034 84.3325 11.4506 84.1759 12.016C84.0193 12.5814 83.7844 13.0635 83.4726 13.4637C82.3508 13.1635 81.0994 13.0134 79.7215 13.0134C77.8602 13.0134 76.3619 13.3712 75.2249 14.0867V30.9913C74.7129 31.105 74.1166 31.1626 73.4344 31.1626C72.7944 31.1626 72.1981 31.105 71.6439 30.9913V12.4996C72.567 11.7129 73.7778 11.0489 75.2776 10.5047C76.776 9.96055 78.3361 9.68921 79.9549 9.68921C81.5737 9.68921 83.0374 9.9181 84.3445 10.3759L84.346 10.3744Z" fill="white"/>
<path d="M104.621 10.1592C105.275 10.1592 105.858 10.2168 106.368 10.3305V29.5725C104.891 30.2168 103.424 30.717 101.968 31.0747C100.512 31.4325 98.8251 31.6114 96.9066 31.6114C94.0514 31.6114 91.8799 30.8898 90.3966 29.4452C88.9118 28.0006 88.1694 26.0134 88.1694 23.4819V10.332C88.7236 10.2183 89.3199 10.1607 89.9599 10.1607C90.5999 10.1607 91.1963 10.2183 91.7068 10.332V22.0237C91.7068 23.0969 91.7851 23.9867 91.9417 24.6946C92.0983 25.4025 92.3859 26.0467 92.8045 26.6258C93.2232 27.2048 93.8376 27.6308 94.6477 27.9021C95.4579 28.1734 96.4879 28.3099 97.7378 28.3099C99.4997 28.3099 101.197 28.0021 102.831 27.3867V10.332C103.385 10.2183 103.981 10.1607 104.621 10.1607V10.1592Z" fill="white"/>
<path d="M120.412 31.6113C118.409 31.6113 116.754 31.343 115.447 30.8064C114.14 30.2698 113.146 29.6726 112.464 29.0147C112.89 27.8703 113.557 27.0199 114.467 26.462C114.921 26.8334 115.337 27.1411 115.714 27.3852C116.09 27.6292 116.704 27.8718 117.557 28.1143C118.409 28.3584 119.361 28.4796 120.412 28.4796C122.174 28.4796 123.47 28.1901 124.302 27.611C125.133 27.032 125.548 26.2559 125.548 25.2842C125.548 24.3975 125.157 23.6941 124.377 23.1711C123.595 22.6497 122.246 22.2662 120.328 22.0237C119.261 21.8948 118.314 21.7023 117.483 21.4446C116.652 21.1869 115.878 20.8307 115.159 20.3714C114.443 19.9136 113.891 19.3088 113.507 18.5584C113.123 17.8081 112.932 16.9319 112.932 15.93C112.932 14.114 113.678 12.6194 115.17 11.4461C116.662 10.2744 118.686 9.68774 121.243 9.68774C122.791 9.68774 124.205 9.88784 125.484 10.288C126.762 10.6882 127.743 11.1748 128.425 11.7463C128.197 12.8331 127.693 13.7275 126.911 14.4278C125.149 13.3409 123.126 12.7967 120.838 12.7967C119.346 12.7967 118.231 13.0408 117.492 13.5259C116.753 14.0124 116.384 14.6764 116.384 15.5207C116.384 16.365 116.71 17.0411 117.364 17.5049C118.018 17.9703 119.246 18.3311 121.05 18.5888C123.636 18.9465 125.607 19.612 126.964 20.5836C128.321 21.5568 129 22.9574 129 24.7885C129 26.9198 128.236 28.5888 126.71 29.7969C125.183 31.005 123.083 31.6098 120.412 31.6098V31.6113Z" fill="white"/>
<path d="M20.5192 9.33C19.5027 9.09049 18.051 8.995 17.1806 8.995C16.3584 8.995 15.3901 8.995 14.4219 9.139C12.3212 12.8862 9.44491 15.9512 6.07776 18.2143V23.9685C6.50392 23.7244 6.93009 23.4652 7.35625 23.206V23.209C8.14534 22.724 9.94186 21.5522 12.0546 19.759C15.1507 17.0744 18.0586 13.6001 20.5192 9.33Z" fill="#FF9810"/>
<path d="M5.46937 18.613V0.239503C4.54927 0.095498 3.63069 0 2.71059 0C1.7905 0 0.920095 0.095498 0 0.239503V31.7235C0.968283 31.9145 1.88838 31.963 2.75878 31.963C3.67887 31.963 4.59746 31.916 5.46937 31.7235V18.613Z" fill="#28C6FF"/>
<path d="M12.0998 20.5912C11.2595 21.2945 9.1573 23.0074 7.802 23.7078L15.0513 31.866C15.8735 31.9615 17.1325 32.01 17.8101 32.01C19.31 32.01 20.9559 31.7705 21.7781 31.5795L12.0998 20.5912Z" fill="#DB0025"/>
</g>
<defs>
<clipPath id="clip0_209_208">
<rect width="129" height="40" fill="white"/>
</clipPath>
</defs>
</svg>
